<?xml version="1.0" encoding="UTF-8"?>
<svg id="Camada_2" data-name="Camada 2" xmlns="http://www.w3.org/2000/svg" viewBox="0 0 312.97 125.23">
  <defs>
    <style>
      .cls-1 {
        fill: #1d1d1b;
        stroke-width: 0px;
      }
    </style>
  </defs>
  <g id="Camada_1-2" data-name="Camada 1">
    <g>
      <g>
        <path class="cls-1" d="m42.72,6l19.9,14.58,20.07-14.41v-.17c-6.18-2.23-13.04-3.43-19.9-3.43-7.21,0-13.9,1.2-20.07,3.43Z"/>
        <path class="cls-1" d="m13.9,97.61c7.72,10.81,19.04,18.87,32.08,22.64l.69-.51-8.58-23.16-24.19,1.03Z"/>
        <path class="cls-1" d="m16.47,26.08h-1.54C7.21,36.2,2.57,48.89,2.57,62.62v.69l1.2.86,20.07-14.41-7.38-23.67Z"/>
        <path class="cls-1" d="m3.77,66.73c-.51,0-1.03-.17-1.54-.51l-1.2-.86c-.69-.51-1.03-1.2-1.03-2.06v-.69c0-1.37,1.2-2.57,2.57-2.57.69,0,1.2.17,1.72.51l16.64-11.84-6.35-20.07c-1.2-.17-2.23-1.2-2.23-2.57s1.2-2.57,2.57-2.57h1.54c1.03,0,2.06.69,2.4,1.89l7.38,23.67c.34,1.03,0,2.23-1.03,2.92l-20.07,14.41c-.34.17-.86.34-1.37.34Z"/>
        <path class="cls-1" d="m110.65,26.59h-.34l-8.23,23.33,19.73,15.1.86-.51v-1.89c0-13.55-4.46-25.9-12.01-36.03Z"/>
        <path class="cls-1" d="m121.8,67.59c-.51,0-1.03-.17-1.54-.51l-19.73-15.1c-.86-.69-1.2-1.89-.86-2.92l8.23-23.33c.34-1.03,1.37-1.72,2.4-1.72h.34c1.37,0,2.57,1.2,2.57,2.57,0,.69-.34,1.37-.86,1.89l-7.21,20.59,15.44,11.84c.51-.51,1.2-.86,1.89-.86,1.37,0,2.57,1.2,2.57,2.57v1.89c0,.86-.51,1.54-1.03,2.06l-.86.51c-.34.34-.86.51-1.37.51Z"/>
        <path class="cls-1" d="m62.62,23.16c-.51,0-1.03-.17-1.54-.51l-19.9-14.58c-1.2-.86-1.37-2.4-.51-3.6s2.4-1.37,3.6-.51l18.36,13.38,18.18-13.04c.34-.34.69-.51,1.03-.69,1.37-.51,2.74.17,3.26,1.54.34,1.03,0,2.4-.86,2.92l-20.07,14.41c-.51.51-1.03.69-1.54.69Z"/>
        <path class="cls-1" d="m45.98,122.83c-.69,0-1.54-.34-2.06-1.03-.69-.86-.69-1.89-.34-2.74l-7.38-19.9-22.13,1.03c-1.54,0-2.57-1.03-2.74-2.4,0-1.37,1.03-2.57,2.4-2.74l24.02-1.03c1.2,0,2.06.69,2.57,1.72l8.58,23.16c.34,1.03,0,2.23-.86,2.92l-.69.51c-.34.34-.86.51-1.37.51Z"/>
        <path class="cls-1" d="m112.19,96.58h0l-24.7-.34-7.89,23.5.51.34c13.04-3.95,24.36-12.35,32.08-23.5Z"/>
        <path class="cls-1" d="m79.94,122.66c-.51,0-1.03-.17-1.54-.51l-.51-.34c-.86-.69-1.2-1.89-.86-2.92l7.89-23.33c.34-1.03,1.37-1.72,2.4-1.72h0l24.7.17c1.2,0,2.06.69,2.4,1.89.34,1.37-.34,2.74-1.72,3.26-.34.17-.69.17-1.03,0l-22.64-.17-6.86,20.41c.34.86.17,1.72-.34,2.4-.34.51-1.03.86-1.89.86Z"/>
        <path class="cls-1" d="m62.62,125.23C28.13,125.23,0,97.1,0,62.62S28.13,0,62.62,0s62.62,28.13,62.62,62.62-28.13,62.62-62.62,62.62Zm0-120.08C30.88,5.15,5.15,30.88,5.15,62.62s25.73,57.47,57.47,57.47,57.47-25.73,57.47-57.47S94.35,5.15,62.62,5.15Z"/>
        <polygon class="cls-1" points="48.21 80.8 39.28 53.35 62.62 36.37 85.95 53.35 77.03 80.8 48.21 80.8"/>
        <path class="cls-1" d="m77.03,83.37h-28.82c-1.03,0-2.06-.69-2.4-1.72l-8.92-27.45c-.34-1.03,0-2.23.86-2.92l23.33-16.98c.86-.69,2.06-.69,3.09,0l23.33,16.98c.86.69,1.2,1.89.86,2.92l-8.92,27.45c-.34,1.03-1.2,1.72-2.4,1.72Zm-26.93-5.15h25.05l7.72-23.85-20.24-14.75-20.24,14.75,7.72,23.85Z"/>
        <path class="cls-1" d="m87.32,98.81c-.86,0-1.72-.34-2.06-1.2l-10.29-15.44c-.86-1.2-.51-2.74.69-3.6,1.2-.86,2.74-.51,3.6.69l10.29,15.44c.86,1.2.51,2.74-.69,3.6-.51.51-1.03.51-1.54.51Z"/>
        <path class="cls-1" d="m37.91,99.16c-.51,0-1.03-.17-1.37-.34-1.2-.86-1.54-2.4-.69-3.6l10.29-15.78c.86-1.2,2.4-1.54,3.6-.69,1.2.86,1.54,2.4.69,3.6l-10.29,15.78c-.69.69-1.37,1.03-2.23,1.03Z"/>
        <path class="cls-1" d="m62.62,38.94c-1.37,0-2.57-1.2-2.57-2.57v-15.78c0-1.37,1.2-2.57,2.57-2.57h0c1.37,0,2.57,1.2,2.57,2.57v15.78c0,1.37-1.2,2.57-2.57,2.57h0Z"/>
        <path class="cls-1" d="m85.95,55.92c-1.2,0-2.23-.86-2.57-2.06-.34-1.37.51-2.74,2.06-3.09l16.13-3.43c1.37-.34,2.74.51,3.09,2.06.34,1.37-.51,2.74-2.06,3.09l-16.13,3.43h-.51Z"/>
        <path class="cls-1" d="m39.28,55.92h-.51l-15.44-3.6c-1.37-.34-2.23-1.72-1.89-3.09s1.72-2.23,3.09-1.89l15.27,3.6c1.37.34,2.23,1.72,1.89,3.09-.17,1.03-1.2,1.89-2.4,1.89Z"/>
      </g>
      <g>
        <path class="cls-1" d="m161.26,32.63c0-3.33-.43-5.68-1.28-7.07-.86-1.39-2.32-2.08-4.4-2.08-.65,0-1.32.03-2.01.1s-1.36.15-2.01.24v28.14h-10.33V16.76c.88-.23,1.91-.47,3.08-.73,1.18-.25,2.43-.48,3.74-.69s2.67-.37,4.05-.49c1.39-.11,2.75-.17,4.09-.17,2.63,0,4.77.34,6.41,1,1.64.67,2.99,1.47,4.05,2.39,1.48-1.06,3.18-1.89,5.09-2.5,1.92-.6,3.68-.9,5.3-.9,2.91,0,5.3.4,7.17,1.21,1.87.81,3.36,1.95,4.47,3.43,1.11,1.48,1.87,3.23,2.29,5.27.42,2.03.62,4.3.62,6.79v20.58h-10.33v-19.34c0-3.33-.43-5.68-1.28-7.07-.86-1.39-2.32-2.08-4.4-2.08-.55,0-1.33.14-2.32.42-.99.28-1.81.62-2.46,1.04.32,1.06.53,2.18.62,3.36.09,1.18.14,2.44.14,3.78v19.89h-10.33v-19.34Z"/>
        <path class="cls-1" d="m199.24,34.02c0-3.23.5-6.06,1.49-8.49s2.3-4.45,3.92-6.06c1.62-1.62,3.48-2.84,5.58-3.67,2.1-.83,4.26-1.25,6.48-1.25,5.17,0,9.26,1.58,12.27,4.75,3,3.17,4.5,7.82,4.5,13.96,0,.6-.02,1.26-.07,1.98-.05.72-.09,1.35-.14,1.91h-23.43c.23,2.13,1.22,3.81,2.98,5.06,1.75,1.25,4.11,1.87,7.07,1.87,1.89,0,3.75-.17,5.58-.52,1.82-.35,3.31-.77,4.47-1.28l1.39,8.39c-.55.28-1.29.55-2.22.83-.92.28-1.95.52-3.08.73s-2.34.38-3.64.52c-1.29.14-2.59.21-3.88.21-3.28,0-6.13-.49-8.56-1.46-2.42-.97-4.44-2.3-6.03-3.99-1.59-1.69-2.77-3.68-3.53-5.99-.76-2.31-1.14-4.8-1.14-7.48Zm24.26-3.95c-.05-.88-.2-1.73-.45-2.56-.25-.83-.65-1.57-1.18-2.22-.53-.65-1.2-1.18-2.01-1.59-.81-.42-1.81-.62-3.01-.62s-2.15.2-2.98.59c-.83.39-1.52.91-2.08,1.56-.55.65-.98,1.4-1.28,2.25-.3.86-.52,1.72-.66,2.6h13.65Z"/>
        <path class="cls-1" d="m272.56,50.72c-1.76.51-4.02.98-6.79,1.42-2.77.44-5.68.66-8.73.66s-5.67-.42-7.73-1.25c-2.06-.83-3.69-2-4.89-3.5-1.2-1.5-2.06-3.29-2.56-5.37-.51-2.08-.76-4.37-.76-6.86V15.51h10.33v19.06c0,3.33.44,5.73,1.32,7.21.88,1.48,2.52,2.22,4.92,2.22.74,0,1.52-.03,2.36-.1.83-.07,1.57-.15,2.22-.24V15.51h10.33v35.21Z"/>
        <path class="cls-1" d="m139.49,91.49c0-2.63.43-5.12,1.28-7.45.85-2.33,2.09-4.37,3.71-6.1,1.62-1.73,3.58-3.11,5.89-4.12,2.31-1.02,4.94-1.53,7.9-1.53,1.94,0,3.72.17,5.34.52,1.62.35,3.19.84,4.71,1.49l-2.15,8.25c-.97-.37-2.03-.69-3.19-.97-1.16-.28-2.45-.42-3.88-.42-3.05,0-5.33.95-6.83,2.84-1.5,1.9-2.25,4.39-2.25,7.49,0,3.28.7,5.82,2.11,7.62,1.41,1.8,3.87,2.7,7.38,2.7,1.25,0,2.59-.11,4.02-.35,1.43-.23,2.75-.6,3.95-1.11l1.46,8.46c-1.2.51-2.7.95-4.51,1.32-1.8.37-3.79.55-5.96.55-3.33,0-6.19-.5-8.59-1.49-2.4-.99-4.38-2.34-5.93-4.05-1.55-1.71-2.68-3.73-3.4-6.06-.72-2.33-1.07-4.86-1.07-7.59Z"/>
        <path class="cls-1" d="m190.43,110.41c-3-.05-5.44-.37-7.31-.97-1.87-.6-3.35-1.44-4.44-2.53-1.09-1.08-1.83-2.4-2.22-3.95-.39-1.55-.59-3.29-.59-5.23v-40.13l10.33-1.66v39.71c0,.92.07,1.76.21,2.5.14.74.4,1.36.8,1.87.39.51.96.92,1.7,1.25.74.32,1.73.53,2.98.62l-1.46,8.53Z"/>
        <path class="cls-1" d="m228.9,108.47c-1.76.51-4.02.98-6.79,1.42-2.77.44-5.68.66-8.73.66s-5.67-.42-7.73-1.25c-2.06-.83-3.69-2-4.89-3.5-1.2-1.5-2.06-3.29-2.56-5.37-.51-2.08-.76-4.37-.76-6.86v-20.31h10.33v19.06c0,3.33.44,5.73,1.32,7.21.88,1.48,2.52,2.22,4.92,2.22.74,0,1.52-.03,2.36-.1.83-.07,1.57-.15,2.22-.24v-28.14h10.33v35.21Z"/>
        <path class="cls-1" d="m272.49,91.49c0,2.91-.43,5.54-1.28,7.9-.86,2.36-2.09,4.37-3.71,6.03s-3.6,2.95-5.96,3.85c-2.36.9-5.04,1.35-8.04,1.35-1.25,0-2.55-.06-3.92-.17-1.36-.12-2.7-.27-4.02-.45-1.32-.19-2.58-.4-3.78-.66s-2.26-.52-3.19-.8v-50.94l10.33-1.66v18.16c1.15-.51,2.36-.9,3.6-1.18,1.25-.28,2.59-.42,4.02-.42,2.59,0,4.87.45,6.86,1.35,1.99.9,3.65,2.18,4.99,3.85,1.34,1.66,2.36,3.66,3.05,6,.69,2.33,1.04,4.93,1.04,7.8Zm-10.53-.28c0-6.65-2.45-9.98-7.35-9.98-1.06,0-2.11.14-3.15.42-1.04.28-1.88.62-2.53,1.04v18.78c.51.09,1.15.17,1.94.24.78.07,1.64.1,2.56.1,2.82,0,4.94-.97,6.38-2.91,1.43-1.94,2.15-4.5,2.15-7.69Z"/>
        <path class="cls-1" d="m278.73,91.77c0-3.23.5-6.06,1.49-8.49s2.3-4.45,3.92-6.06c1.62-1.62,3.48-2.84,5.58-3.67,2.1-.83,4.26-1.25,6.48-1.25,5.17,0,9.26,1.58,12.27,4.75,3,3.17,4.5,7.82,4.5,13.96,0,.6-.02,1.26-.07,1.98-.05.72-.09,1.35-.14,1.91h-23.43c.23,2.13,1.22,3.81,2.98,5.06,1.75,1.25,4.11,1.87,7.07,1.87,1.89,0,3.75-.17,5.58-.52,1.82-.35,3.31-.77,4.47-1.28l1.39,8.39c-.55.28-1.29.55-2.22.83-.92.28-1.95.52-3.08.73s-2.34.38-3.64.52c-1.29.14-2.59.21-3.88.21-3.28,0-6.13-.49-8.56-1.46-2.42-.97-4.44-2.3-6.03-3.99-1.59-1.69-2.77-3.68-3.53-5.99-.76-2.31-1.14-4.81-1.14-7.49Zm24.26-3.95c-.05-.88-.2-1.73-.45-2.56-.25-.83-.65-1.57-1.18-2.22-.53-.65-1.2-1.18-2.01-1.59-.81-.42-1.81-.62-3.01-.62s-2.15.2-2.98.59c-.83.39-1.52.91-2.08,1.56-.55.65-.98,1.4-1.28,2.25-.3.86-.52,1.72-.66,2.6h13.65Z"/>
      </g>
    </g>
  </g>
</svg>