<?xml version="1.0" encoding="UTF-8"?>
<svg id="Camada_2" data-name="Camada 2" xmlns="http://www.w3.org/2000/svg" viewBox="0 0 125.23 125.23">
  <defs>
    <style>
      .cls-1 {
        fill: #1d1d1b;
        stroke-width: 0px;
      }
    </style>
  </defs>
  <g id="Camada_1-2" data-name="Camada 1">
    <g>
      <path class="cls-1" d="m42.72,6l19.9,14.58,20.07-14.41v-.17c-6.18-2.23-13.04-3.43-19.9-3.43-7.21,0-13.9,1.2-20.07,3.43Z"/>
      <path class="cls-1" d="m13.9,97.61c7.72,10.81,19.04,18.87,32.08,22.64l.69-.51-8.58-23.16-24.19,1.03Z"/>
      <path class="cls-1" d="m16.47,26.08h-1.54C7.21,36.2,2.57,48.89,2.57,62.62v.69l1.2.86,20.07-14.41-7.38-23.67Z"/>
      <path class="cls-1" d="m3.77,66.73c-.51,0-1.03-.17-1.54-.51l-1.2-.86c-.69-.51-1.03-1.2-1.03-2.06v-.69c0-1.37,1.2-2.57,2.57-2.57.69,0,1.2.17,1.72.51l16.64-11.84-6.35-20.07c-1.2-.17-2.23-1.2-2.23-2.57s1.2-2.57,2.57-2.57h1.54c1.03,0,2.06.69,2.4,1.89l7.38,23.67c.34,1.03,0,2.23-1.03,2.92l-20.07,14.41c-.34.17-.86.34-1.37.34Z"/>
      <path class="cls-1" d="m110.65,26.59h-.34l-8.23,23.33,19.73,15.1.86-.51v-1.89c0-13.55-4.46-25.9-12.01-36.03Z"/>
      <path class="cls-1" d="m121.8,67.59c-.51,0-1.03-.17-1.54-.51l-19.73-15.1c-.86-.69-1.2-1.89-.86-2.92l8.23-23.33c.34-1.03,1.37-1.72,2.4-1.72h.34c1.37,0,2.57,1.2,2.57,2.57,0,.69-.34,1.37-.86,1.89l-7.21,20.59,15.44,11.84c.51-.51,1.2-.86,1.89-.86,1.37,0,2.57,1.2,2.57,2.57v1.89c0,.86-.51,1.54-1.03,2.06l-.86.51c-.34.34-.86.51-1.37.51Z"/>
      <path class="cls-1" d="m62.62,23.16c-.51,0-1.03-.17-1.54-.51l-19.9-14.58c-1.2-.86-1.37-2.4-.51-3.6s2.4-1.37,3.6-.51l18.36,13.38,18.18-13.04c.34-.34.69-.51,1.03-.69,1.37-.51,2.74.17,3.26,1.54.34,1.03,0,2.4-.86,2.92l-20.07,14.41c-.51.51-1.03.69-1.54.69Z"/>
      <path class="cls-1" d="m45.98,122.83c-.69,0-1.54-.34-2.06-1.03-.69-.86-.69-1.89-.34-2.74l-7.38-19.9-22.13,1.03c-1.54,0-2.57-1.03-2.74-2.4,0-1.37,1.03-2.57,2.4-2.74l24.02-1.03c1.2,0,2.06.69,2.57,1.72l8.58,23.16c.34,1.03,0,2.23-.86,2.92l-.69.51c-.34.34-.86.51-1.37.51Z"/>
      <path class="cls-1" d="m112.19,96.58h0l-24.7-.34-7.89,23.5.51.34c13.04-3.95,24.36-12.35,32.08-23.5Z"/>
      <path class="cls-1" d="m79.94,122.66c-.51,0-1.03-.17-1.54-.51l-.51-.34c-.86-.69-1.2-1.89-.86-2.92l7.89-23.33c.34-1.03,1.37-1.72,2.4-1.72h0l24.7.17c1.2,0,2.06.69,2.4,1.89.34,1.37-.34,2.74-1.72,3.26-.34.17-.69.17-1.03,0l-22.64-.17-6.86,20.41c.34.86.17,1.72-.34,2.4-.34.51-1.03.86-1.89.86Z"/>
      <path class="cls-1" d="m62.62,125.23C28.13,125.23,0,97.1,0,62.62S28.13,0,62.62,0s62.62,28.13,62.62,62.62-28.13,62.62-62.62,62.62Zm0-120.08C30.88,5.15,5.15,30.88,5.15,62.62s25.73,57.47,57.47,57.47,57.47-25.73,57.47-57.47S94.35,5.15,62.62,5.15Z"/>
      <polygon class="cls-1" points="48.21 80.8 39.28 53.35 62.62 36.37 85.95 53.35 77.03 80.8 48.21 80.8"/>
      <path class="cls-1" d="m77.03,83.37h-28.82c-1.03,0-2.06-.69-2.4-1.72l-8.92-27.45c-.34-1.03,0-2.23.86-2.92l23.33-16.98c.86-.69,2.06-.69,3.09,0l23.33,16.98c.86.69,1.2,1.89.86,2.92l-8.92,27.45c-.34,1.03-1.2,1.72-2.4,1.72Zm-26.93-5.15h25.05l7.72-23.85-20.24-14.75-20.24,14.75,7.72,23.85Z"/>
      <path class="cls-1" d="m87.32,98.81c-.86,0-1.72-.34-2.06-1.2l-10.29-15.44c-.86-1.2-.51-2.74.69-3.6,1.2-.86,2.74-.51,3.6.69l10.29,15.44c.86,1.2.51,2.74-.69,3.6-.51.51-1.03.51-1.54.51Z"/>
      <path class="cls-1" d="m37.91,99.16c-.51,0-1.03-.17-1.37-.34-1.2-.86-1.54-2.4-.69-3.6l10.29-15.78c.86-1.2,2.4-1.54,3.6-.69,1.2.86,1.54,2.4.69,3.6l-10.29,15.78c-.69.69-1.37,1.03-2.23,1.03Z"/>
      <path class="cls-1" d="m62.62,38.94c-1.37,0-2.57-1.2-2.57-2.57v-15.78c0-1.37,1.2-2.57,2.57-2.57h0c1.37,0,2.57,1.2,2.57,2.57v15.78c0,1.37-1.2,2.57-2.57,2.57h0Z"/>
      <path class="cls-1" d="m85.95,55.92c-1.2,0-2.23-.86-2.57-2.06-.34-1.37.51-2.74,2.06-3.09l16.13-3.43c1.37-.34,2.74.51,3.09,2.06.34,1.37-.51,2.74-2.06,3.09l-16.13,3.43h-.51Z"/>
      <path class="cls-1" d="m39.28,55.92h-.51l-15.44-3.6c-1.37-.34-2.23-1.72-1.89-3.09s1.72-2.23,3.09-1.89l15.27,3.6c1.37.34,2.23,1.72,1.89,3.09-.17,1.03-1.2,1.89-2.4,1.89Z"/>
    </g>
  </g>
</svg>